<svg width="46" height="25" viewBox="0 0 46 25" fill="none" xmlns="http://www.w3.org/2000/svg">
<path fill-rule="evenodd" clip-rule="evenodd" d="M4.19354 24.6471C13.3743 20.787 26.2563 17.2881 43.3173 20.7915L43.4962 16.546C25.496 14.6178 12.58 20.2424 4.19354 24.2285V24.6471Z" fill="#D3D3D3"/>
<path fill-rule="evenodd" clip-rule="evenodd" d="M13.794 13.4521L17.773 0.580299H21.3234L17.3441 13.4521H13.794ZM12.2069 0.583814L9.01322 6.04019C8.20021 7.46925 7.725 8.19106 7.49648 9.09414H7.44785C7.50441 7.94929 7.34166 6.54383 7.3263 5.74946L6.97367 0.583814H0.9973L0.935883 0.930031C2.4713 0.930031 3.38181 1.68674 3.63234 3.23455L4.79721 13.4521H8.47531L15.9124 0.583814H12.2069ZM39.8166 13.4521L39.7185 11.5377L35.2853 11.5342L34.3786 13.4519H30.5242L37.5132 0.604652H42.2443L43.4279 13.4519H39.8166V13.4521ZM39.4094 5.85943C39.37 4.90814 39.337 3.61692 39.403 2.83561H39.3506C39.1346 3.47457 38.2064 5.39345 37.7982 6.3372L36.4773 9.15866H39.5901L39.4094 5.85943ZM25.0507 13.8179C22.5441 13.8179 20.8807 13.0379 19.6931 12.3424L21.3844 9.80842C22.4504 10.3934 23.2875 11.0685 25.2134 11.0685C25.8327 11.0685 26.4295 10.9106 26.7683 10.3349C27.2622 9.4976 26.6544 9.04719 25.2674 8.27692L24.5826 7.84007C22.5267 6.46173 21.6374 5.15268 22.6053 2.86749C23.2246 1.4058 24.858 0.297852 27.5526 0.297852C29.411 0.297852 31.1532 1.08644 32.1684 1.85696L30.224 4.09419C29.2334 3.30811 28.4122 2.91043 27.4725 2.91043C26.7233 2.91043 26.1541 3.19388 25.9576 3.57625C25.5878 4.29505 26.0771 4.78512 27.1575 5.44316L27.9718 5.95132C30.4679 7.49586 31.0626 9.11548 30.4369 10.6296C29.3611 13.2359 27.2545 13.8179 25.0507 13.8179ZM44.399 2.57124H44.1651V1.17582H44.7048C45.0482 1.17582 45.2235 1.29382 45.2235 1.57702C45.2235 1.82959 45.0651 1.93404 44.8522 1.95764L45.2507 2.57124H44.9863L44.6188 1.97471H44.399V2.57124ZM44.6598 1.77913C44.8353 1.77913 44.9896 1.76231 44.9896 1.55995C44.9896 1.39149 44.8213 1.37115 44.6808 1.37115H44.3988V1.77913H44.6598ZM44.6529 3.11052C43.9146 3.11052 43.389 2.56797 43.389 1.84993C43.389 1.09147 43.9727 0.589337 44.6529 0.589337C45.3267 0.589337 45.9104 1.09147 45.9104 1.84993C45.9104 2.60814 45.3267 3.11052 44.6529 3.11052ZM44.6529 0.808516C44.0965 0.808516 43.6638 1.23633 43.6638 1.84993C43.6638 2.42286 44.0418 2.89135 44.6529 2.89135C45.2026 2.89135 45.6355 2.4668 45.6355 1.84993C45.6355 1.23633 45.2026 0.808516 44.6529 0.808516Z" fill="#EFEFEF"/>
</svg>
